<svg width="27" height="26" viewBox="0 0 27 26" fill="none" xmlns="http://www.w3.org/2000/svg">
<path d="M12.9571 4.72756L13.0936 4.72874M13.0936 4.72874C17.6619 4.81429 21.2955 8.58631 21.2105 13.1553C21.1256 17.7225 17.3531 21.3568 12.7854 21.2712C8.21718 21.1868 4.58299 17.4142 4.66796 12.8465C4.75352 8.27808 8.52541 4.64377 13.0936 4.72874ZM10.5687 18.755L7.32006 18.8716C8.79325 20.2856 10.7462 21.0907 12.7878 21.1259H12.7942L10.5687 18.755ZM15.3326 18.7451L13.1177 21.1254C15.161 21.083 17.1128 20.2698 18.5818 18.8488L15.3326 18.7451ZM12.9378 17.7406L10.6947 18.6759L12.9553 21.0849L15.2008 18.673L12.9378 17.7406ZM7.33881 15.4348L7.23393 18.728L10.5124 18.6108L9.57194 16.3548L7.33881 15.4348ZM18.549 15.4031L16.2989 16.3408L15.3683 18.6003L18.6674 18.7058L18.549 15.4031ZM4.81445 13.1781C4.85664 15.2218 5.66983 17.1739 7.09095 18.6431L7.19408 15.3932L4.81445 13.1781ZM21.0646 13.146L18.6937 15.3704L18.811 18.6191C20.2245 17.1459 21.0295 15.1931 21.0646 13.1517V13.146ZM9.76297 16.4333L10.6408 18.5399L12.7473 17.6622L9.76297 16.4333ZM16.1084 16.4198L13.1288 17.6616L15.2394 18.5306L16.1084 16.4198ZM12.919 8.3859L9.67039 9.73954L8.33028 12.9941L9.68386 16.2423L12.9384 17.583L16.1864 16.2294L17.527 12.9742L16.1735 9.72606L12.919 8.3859ZM8.25176 13.1846L7.38277 15.2953L9.49284 16.1643L8.25176 13.1846ZM17.6062 13.1652L16.3774 16.1503L18.4846 15.2719L17.6062 13.1652ZM7.24623 10.7721L4.85488 13.0164L7.24623 15.2432L8.17207 12.9935L7.24623 10.7721ZM18.6082 10.7346L17.6847 12.9748L18.6264 15.2338L21.0236 12.9836L18.6082 10.7346ZM7.0675 7.3821C5.65379 8.8552 4.84864 10.8079 4.81328 12.8494V12.8553L7.18411 10.6308L7.0675 7.3821ZM18.7869 7.35866L18.6838 10.608L21.0634 12.823C21.0212 10.7794 20.208 8.82784 18.7869 7.35866ZM9.47936 9.81982L7.3728 10.6971L8.25059 12.8037L9.47936 9.81982ZM16.3639 9.80517L17.605 12.7843L18.474 10.6748L16.3639 9.80517ZM7.21166 7.29479L7.32826 10.557L9.55847 9.6282L10.4767 7.3985L7.21166 7.29479ZM18.644 7.27193L15.3584 7.38913L16.2848 9.61414L18.5408 10.5435L18.644 7.27193ZM10.6179 7.43835L9.74891 9.5485L12.7286 8.30738L10.6179 7.43835ZM15.2166 7.42898L13.1106 8.30679L16.0949 9.53562L15.2166 7.42898ZM12.9231 4.91508L10.6935 7.31178L12.9202 8.22827L15.1574 7.29596L12.9231 4.91508ZM12.7614 4.87523C10.718 4.91757 8.76619 5.73078 7.29721 7.15181L10.5464 7.25494L12.7614 4.87523ZM13.0913 4.87523H13.0854L15.3097 7.24556L18.559 7.12836C17.0859 5.71471 15.1326 4.91031 13.0913 4.87523Z" stroke="#969696" stroke-width="0.590909" stroke-linejoin="bevel"/>
</svg>
