<svg width="46" height="24" viewBox="0 0 46 24" fill="none" xmlns="http://www.w3.org/2000/svg">
<g clip-path="url(#clip0_144_1890)">
<path d="M27.4267 12L26.2133 9.12666M27.4267 12L26.24 14.8933M27.4267 12L30.4733 11.9133M26.2133 9.12666L23.3133 7.94666M26.2133 9.12666L28.4467 7.06666M26.24 14.8933L23.3533 16.1L20.4533 14.92M26.24 14.8933L28.4467 16.9867M23.3133 7.94666L20.4267 9.15333M23.3133 7.94666L23.3333 4.91333M20.4267 9.15333L19.24 12.0467M20.4267 9.15333L18.2667 7.01333M19.24 12.0467L20.4533 14.92M19.24 12.0467L16.1933 12.0267M20.4533 14.92L18.2667 17.0333M23.36 16.1L23.3133 19.1333M31.46 10.2133H41.68C42.2249 10.2133 42.6667 10.6551 42.6667 11.2V12.7933C42.6667 13.3383 42.2249 13.78 41.68 13.78H31.46C30.9151 13.78 30.4733 13.3383 30.4733 12.7933V11.2C30.4733 10.6551 30.9151 10.2133 31.46 10.2133ZM4.98667 10.2133H15.2067C15.7516 10.2133 16.1933 10.6551 16.1933 11.2V12.7933C16.1933 13.3383 15.7516 13.78 15.2067 13.78H4.98667C4.44175 13.78 4 13.3383 4 12.7933V11.2C4 10.6551 4.44175 10.2133 4.98667 10.2133ZM20.6667 18.6067C19.3713 18.0659 18.265 17.154 17.4868 15.9857C16.7087 14.8174 16.2936 13.4451 16.2938 12.0414C16.294 10.6377 16.7095 9.26546 17.488 8.09742C18.2665 6.92939 19.3731 6.01778 20.6686 5.47738C21.9641 4.93697 23.3905 4.79193 24.7682 5.06052C26.146 5.3291 27.4135 5.9993 28.4111 6.98674C29.4088 7.97418 30.092 9.2347 30.3747 10.6096C30.6574 11.9845 30.5271 13.4123 30 14.7133C29.6476 15.5856 29.1256 16.3791 28.4641 17.048C27.8027 17.717 27.015 18.2479 26.1468 18.6101C25.2786 18.9722 24.3471 19.1584 23.4064 19.1578C22.4657 19.1573 21.5344 18.9699 20.6667 18.6067Z" stroke="#4A4A4A" stroke-width="0.5"/>
</g>
<defs>
<clipPath id="clip0_144_1890">
<rect width="40" height="16" fill="white" transform="translate(3 4)"/>
</clipPath>
</defs>
</svg>
